<mxfile host="app.diagrams.net" modified="2023-12-14T13:59:23.391Z" agent="Mozilla/5.0 (Windows NT 10.0; Win64; x64; rv:120.0) Gecko/20100101 Firefox/120.0" version="22.1.7" etag="JrRWmALgzPmQyBGhiH-t" type="github">
  <diagram name="Page-1" id="6oAIa0BXZw8XRTQMOXxd">
    <mxGraphModel>
      <root>
        <mxCell id="0" />
        <mxCell id="1" parent="0" />
      </root>
    </mxGraphModel>
  </diagram>
</mxfile>
